<svg width="208" height="66" viewBox="0 0 208 66" fill="none" xmlns="http://www.w3.org/2000/svg">
<g clip-path="url(#clip0_27_184)">
<path d="M34.2364 36.8352C39.6784 42.4681 45.0225 48.2013 50.5623 53.7388L66.8883 36.8352L60.494 25.7603H40.6307C38.4992 29.4503 36.3678 33.1428 34.2364 36.8352ZM57.1882 31.4887L59.7684 35.9592L50.5623 45.4923L41.3563 35.9592L43.9365 31.4887H57.1882Z" fill="url(#paint0_linear_27_184)"/>
<path d="M41.3529 35.9609L50.5599 45.4944L59.7667 35.9609L59.7772 35.9778C61.585 39.1089 60.993 42.9737 58.579 45.4364L58.5713 45.445L50.5599 53.7407C45.0203 48.2011 39.6757 42.4703 34.2334 36.835L39.9604 26.9155C38.3689 29.7413 38.7811 33.3939 41.1853 35.7981C41.2364 35.8492 41.2925 35.9031 41.3534 35.9599L41.3529 35.9609ZM40.0389 26.7799L40.0387 26.7802L40.0485 26.7632L40.0389 26.7799Z" fill="url(#paint1_linear_27_184)"/>
<path d="M28.8916 19.5461C29.2943 19.0477 29.7129 18.5624 30.1508 18.0942C31.8576 16.2655 33.8163 14.6855 35.9488 13.3851C36.2748 13.1816 36.5384 13.0221 36.547 13.0173C38.6897 11.7735 41.0001 10.8233 43.3961 10.1838C46.8012 9.26149 50.3847 8.96845 53.926 9.39348C53.9973 9.40154 54.0664 9.41024 54.136 9.42123C55.0631 9.53358 55.9864 9.69637 56.8978 9.90684C65.4124 11.878 72.8443 18.0164 76.3207 26.1487C79.9085 34.5402 79.1056 44.6667 74.0539 52.4375C67.6658 62.2666 54.8263 67.4218 43.0566 64.0643C42.5644 63.9244 42.1922 63.7894 41.6143 63.6156C41.6143 63.6156 40.9617 63.4025 40.4428 63.2549C35.8498 61.9478 30.9272 61.8732 26.3222 62.9835L21.5037 64.2746L19.0271 55.0318C22.4907 53.1475 24.6938 48.9939 23.8156 44.8678C23.767 44.6955 18.9458 26.6935 18.9458 26.6935C18.0232 22.4756 13.9087 19.2562 9.47403 19.3794L6.99866 10.1412C9.34275 9.51065 11.6891 8.87947 14.0357 8.25812C19.1862 6.87805 24.9092 7.96637 29.3678 10.9576C27.8383 12.2027 26.4174 13.5768 25.1275 15.0615C23.625 14.194 21.9513 13.6194 20.191 13.4314C18.6012 13.2618 16.9719 13.3969 15.433 13.8142L13.9829 14.2028C19.0882 15.679 23.3216 20.0427 24.5268 25.3982L24.5142 25.3423C26.8891 34.2145 29.4343 43.7503 29.4343 43.7503C30.4202 48.527 28.9525 53.6919 25.5357 57.2539L25.497 57.2939C25.5667 57.2777 25.6342 57.2621 25.7046 57.2482C31.5581 55.9738 37.6355 56.2826 43.2653 58.1298C43.2653 58.1298 44.3502 58.4989 45.3008 58.7359C52.9665 60.6652 61.5593 58.133 66.9586 52.268C72.9168 45.7961 74.5786 35.6842 70.6517 27.512C67.3224 20.5832 60.2084 15.6866 52.5034 15.0034C52.4275 14.9965 52.3498 14.9927 52.2739 14.9858C44.0616 14.3644 35.6966 18.6691 31.468 25.8413C31.2575 26.1987 31.0564 26.5615 30.8651 26.9295C30.2929 24.7848 29.6224 22.2735 28.8916 19.5461Z" fill="url(#paint2_linear_27_184)"/>
<path d="M52.1779 14.9768C43.9968 14.3949 35.6827 18.695 31.468 25.8398C31.2583 26.1953 31.0587 26.5569 30.8697 26.9239C32.4688 19.0664 38.3531 12.3818 46.6188 10.167C50.0646 9.24357 53.5408 9.20013 56.8079 9.89852C56.8452 9.89757 56.8755 9.89996 56.8989 9.90521C65.4132 11.8772 72.8468 18.0135 76.3225 26.1453C79.9102 34.5384 79.107 44.6648 74.0555 52.4347C70.0714 58.5631 63.5799 62.8752 56.4036 64.4393L56.4027 64.4397L56.2976 64.4624L56.4036 64.4393C68.9739 60.3518 76.2891 47.0683 72.8284 34.1524C72.6816 33.6042 72.5163 33.061 72.3329 32.5239C71.9818 30.7895 71.4175 29.1053 70.6528 27.5096C67.3234 20.5806 60.2097 15.6847 52.5047 15.0002C52.4278 14.9952 52.351 14.9898 52.2741 14.9839L52.1779 14.9768Z" fill="url(#paint3_linear_27_184)"/>
<path d="M149.772 53.7626H144.044V25.7935H149.772V53.7626ZM182.126 25.7624C187.179 25.8102 192.063 28.7817 194.413 33.2332C196.428 37.0476 196.535 41.8212 194.678 45.733C192.062 51.2445 185.615 54.6771 179.39 53.4834C173.684 52.3876 168.946 47.3824 168.175 41.616C167.585 37.2027 169.246 32.5507 172.512 29.51C175.049 27.1494 178.474 25.7959 181.947 25.7624H182.126ZM95.7632 28.4714C98.6602 26.3734 102.346 25.3806 105.933 25.9104C110.335 26.5595 114.388 29.3596 116.443 33.3263C118.471 37.2409 118.502 42.1339 116.505 46.058C113.01 52.9226 103.394 56.1136 96.3956 51.4092C96.1808 51.2636 95.9708 51.1133 95.7632 50.9581V53.7364H90.0345V16.4423H95.7632V28.4714ZM136.289 25.7624C137.463 25.7768 138.633 25.9462 139.767 26.254L139.819 26.2684L138.34 31.7942C137.905 31.6701 137.74 31.6415 137.433 31.5914C132.959 30.8631 128.09 34.603 127.966 39.3509C127.959 39.6229 127.964 39.9021 127.95 40.1193V53.7316H122.221V25.7624H127.95V28.4619C130.298 26.7652 133.194 25.7987 136.11 25.7624H136.289ZM161.208 44.3632C161.208 44.3632 161.205 45.3941 161.661 46.1749C162.461 47.5399 164.201 48.2558 165.74 47.8549L167.215 53.3569C164.7 54.0299 161.938 53.6839 159.75 52.2258C157.167 50.5047 155.52 47.4636 155.48 44.3632V16.437H161.208V44.3632ZM181.983 31.4911C178.322 31.5269 174.856 34.2355 174.003 37.8303C173.348 40.5894 174.233 43.664 176.271 45.6547C178.543 47.874 182.143 48.6262 185.153 47.3967C187.781 46.3229 189.769 43.8167 190.199 41.0099C190.881 36.5512 187.375 31.8415 182.625 31.5102C182.41 31.4959 182.198 31.4911 181.983 31.4911ZM103.967 31.4959C99.5198 31.5508 95.3503 35.5938 95.8228 40.3388C96.2285 44.3966 99.8372 48.0081 104.014 48.0081C108.232 48.0105 112.244 44.2654 112.266 39.9331C112.287 35.6367 108.537 31.5341 104.074 31.4959H103.967ZM149.77 22.192H144.042V16.468H149.77V22.192Z" fill="#00065B"/>
</g>
<defs>
<linearGradient id="paint0_linear_27_184" x1="40.2491" y1="36.398" x2="51.9979" y2="30.9187" gradientUnits="userSpaceOnUse">
<stop stop-color="#009E67"/>
<stop offset="1" stop-color="#02EB81"/>
</linearGradient>
<linearGradient id="paint1_linear_27_184" x1="61.26" y1="39.3302" x2="48.6329" y2="46.0258" gradientUnits="userSpaceOnUse">
<stop stop-color="#009E67"/>
<stop offset="1" stop-color="#01D684"/>
</linearGradient>
<linearGradient id="paint2_linear_27_184" x1="45.8437" y1="17.1686" x2="39.2273" y2="45.7636" gradientUnits="userSpaceOnUse">
<stop stop-color="#3F99FE"/>
<stop offset="1" stop-color="#264AFB"/>
</linearGradient>
<linearGradient id="paint3_linear_27_184" x1="62.8142" y1="63.2269" x2="24.8865" y2="29.6678" gradientUnits="userSpaceOnUse">
<stop stop-color="#3477FD"/>
<stop offset="0.07" stop-color="#3B8BFE"/>
<stop offset="0.14" stop-color="#419DFF"/>
<stop offset="0.37" stop-color="#43A4FF"/>
<stop offset="0.73" stop-color="#44A8FF"/>
<stop offset="1" stop-color="#264AFB"/>
</linearGradient>
<clipPath id="clip0_27_184">
<rect width="189" height="57.75" fill="white" transform="translate(7 7.5)"/>
</clipPath>
</defs>
</svg>
