<svg width="136" height="48" viewBox="0 0 136 48" fill="none" xmlns="http://www.w3.org/2000/svg">
<g clip-path="url(#clip0_14_545)">
<path d="M23.1576 24.5568C26.7856 28.3121 30.3483 32.1342 34.0415 35.8259L44.9255 24.5568L40.6627 17.1735H27.4204C25.9995 19.6336 24.5785 22.0952 23.1576 24.5568ZM38.4588 20.9925L40.1789 23.9728L34.0415 30.3282L27.9042 23.9728L29.6243 20.9925H38.4588Z" fill="url(#paint0_linear_14_545)"/>
<path d="M27.9019 23.974L34.0399 30.3297L40.1778 23.974L40.1848 23.9853C41.39 26.0726 40.9953 28.6492 39.386 30.291L39.3809 30.2967L34.0399 35.8272C30.3468 32.1341 26.7838 28.3136 23.1556 24.5567L26.9736 17.9437C25.9126 19.8276 26.1874 22.2626 27.7902 23.8655C27.8243 23.8995 27.8617 23.9355 27.9022 23.9733L27.9019 23.974ZM27.026 17.8533L27.0258 17.8535L27.0323 17.8422L27.026 17.8533Z" fill="url(#paint1_linear_14_545)"/>
<path d="M19.5944 13.0307C19.8629 12.6985 20.1419 12.3749 20.4339 12.0628C21.5717 10.8436 22.8775 9.7903 24.2992 8.92339C24.5165 8.78773 24.6923 8.68134 24.698 8.67815C26.1265 7.84896 27.6667 7.2155 29.2641 6.78914C31.5341 6.17429 33.9232 5.97893 36.284 6.26229C36.3315 6.26766 36.3776 6.27346 36.424 6.28079C37.0421 6.35569 37.6576 6.46421 38.2652 6.60453C43.9416 7.91865 48.8962 12.0109 51.2138 17.4324C53.6056 23.0268 53.0704 29.7777 49.7026 34.9583C45.4439 41.511 36.8842 44.9479 29.0377 42.7095C28.7096 42.6162 28.4614 42.5262 28.0762 42.4104C28.0762 42.4104 27.6411 42.2683 27.2952 42.1699C24.2332 41.2985 20.9515 41.2487 17.8815 41.989L14.6691 42.8497L13.018 36.6879C15.3271 35.4316 16.7959 32.6626 16.2104 29.9119C16.178 29.797 12.9639 17.7956 12.9639 17.7956C12.3488 14.9837 9.60576 12.8374 6.64934 12.9196L4.9991 6.76078C6.56182 6.3404 8.12609 5.91962 9.69046 5.50539C13.1241 4.58533 16.9394 5.31088 19.9119 7.30505C18.8922 8.13509 17.9449 9.05114 17.085 10.041C16.0833 9.46265 14.9676 9.0796 13.794 8.95421C12.7341 8.84119 11.6479 8.93126 10.622 9.20944L9.65523 9.46849C13.0588 10.4526 15.881 13.3618 16.6845 16.9321L16.6761 16.8948C18.2594 22.8096 19.9562 29.1668 19.9562 29.1668C20.6134 32.3513 19.635 35.7945 17.3571 38.1692L17.3313 38.1959C17.3778 38.1851 17.4228 38.1747 17.4697 38.1654C21.372 37.3158 25.4237 37.5217 29.1769 38.7532C29.1769 38.7532 29.9001 38.9992 30.5338 39.1572C35.6443 40.4434 41.3728 38.7553 44.9724 34.8453C48.9445 30.5307 50.0524 23.7894 47.4344 18.3413C45.2149 13.7221 40.4722 10.4577 35.3356 10.0022C35.285 9.99767 35.2332 9.99507 35.1826 9.99052C29.7077 9.57621 24.1311 12.446 21.312 17.2275C21.1716 17.4658 21.0376 17.7077 20.9101 17.953C20.5286 16.5232 20.0816 14.8489 19.5944 13.0307Z" fill="url(#paint2_linear_14_545)"/>
<path d="M35.1186 9.98454C29.6645 9.5966 24.1218 12.4634 21.312 17.2265C21.1722 17.4636 21.0391 17.7046 20.9131 17.9493C21.9792 12.7109 25.9021 8.25456 31.4125 6.77806C33.7097 6.16241 36.0272 6.13345 38.2053 6.59905C38.2301 6.59841 38.2503 6.6 38.2659 6.6035C43.9421 7.91817 48.8978 12.0091 51.215 17.4302C53.6068 23.0256 53.0713 29.7765 49.7036 34.9565C47.0476 39.0421 42.7199 41.9168 37.9357 42.9595L37.9351 42.9599L37.8651 42.975L37.9357 42.9595C46.3159 40.2346 51.1927 31.3789 48.8856 22.7683C48.7877 22.4028 48.6775 22.0407 48.5552 21.6826C48.3212 20.5264 47.945 19.4036 47.4352 18.3398C45.2156 13.7204 40.4731 10.4565 35.3364 10.0001C35.2852 9.99682 35.234 9.99321 35.1827 9.98932L35.1186 9.98454Z" fill="url(#paint3_linear_14_545)"/>
<path d="M100.182 35.8417H96.3624V17.1956H100.182V35.8417ZM121.75 17.1749C125.119 17.2067 128.375 19.1877 129.942 22.1554C131.285 24.6983 131.357 27.8808 130.119 30.4886C128.375 34.1629 124.077 36.4513 119.927 35.6555C116.122 34.925 112.964 31.5882 112.45 27.7439C112.057 24.8017 113.164 21.7004 115.341 19.6733C117.032 18.0995 119.316 17.1972 121.631 17.1749H121.75ZM64.1755 18.9809C66.1068 17.5822 68.5638 16.9204 70.9556 17.2735C73.8899 17.7063 76.5919 19.573 77.962 22.2174C79.3142 24.8272 79.3349 28.0892 78.0033 30.7053C75.6736 35.2817 69.2625 37.409 64.597 34.2727C64.4539 34.1757 64.3139 34.0754 64.1755 33.972V35.8242H60.3563V10.9614H64.1755V18.9809ZM91.1929 17.1749C91.9756 17.1844 92.7552 17.2974 93.5112 17.5026L93.5462 17.5122L92.5598 21.1961C92.2703 21.1134 92.1602 21.0943 91.9553 21.0609C88.973 20.5753 85.7269 23.0686 85.6441 26.2339C85.6394 26.4152 85.6425 26.6014 85.633 26.7461V35.821H81.8142V17.1749H85.633V18.9745C87.1988 17.8434 89.1292 17.1991 91.0736 17.1749H91.1929ZM107.805 29.5754C107.805 29.5754 107.804 30.2627 108.107 30.7832C108.641 31.6932 109.801 32.1705 110.827 31.9032L111.81 35.5712C110.133 36.0199 108.292 35.7892 106.833 34.8171C105.111 33.6698 104.013 31.6423 103.986 29.5754V10.9579H107.805V29.5754ZM121.656 20.994C119.215 21.0179 116.904 22.8236 116.336 25.2201C115.898 27.0595 116.488 29.1093 117.848 30.4364C119.362 31.9159 121.762 32.4174 123.769 31.5978C125.521 30.8819 126.846 29.2111 127.132 27.3399C127.588 24.3674 125.25 21.2276 122.083 21.0068C121.94 20.9972 121.799 20.994 121.656 20.994ZM69.6444 20.9972C66.6799 21.0338 63.9002 23.7291 64.2152 26.8925C64.4857 29.5977 66.8915 32.0054 69.6762 32.0054C72.488 32.0069 75.1629 29.5102 75.1772 26.622C75.1916 23.7578 72.6916 21.0227 69.716 20.9972H69.6444ZM100.18 14.7946H96.3611V10.9786H100.18V14.7946Z" fill="#00065B"/>
</g>
<defs>
<linearGradient id="paint0_linear_14_545" x1="27.1661" y1="24.2653" x2="34.9986" y2="20.6125" gradientUnits="userSpaceOnUse">
<stop stop-color="#009E67"/>
<stop offset="1" stop-color="#02EB81"/>
</linearGradient>
<linearGradient id="paint1_linear_14_545" x1="41.1733" y1="26.2202" x2="32.7552" y2="30.6839" gradientUnits="userSpaceOnUse">
<stop stop-color="#009E67"/>
<stop offset="1" stop-color="#01D684"/>
</linearGradient>
<linearGradient id="paint2_linear_14_545" x1="30.8958" y1="11.4457" x2="26.4849" y2="30.509" gradientUnits="userSpaceOnUse">
<stop stop-color="#3F99FE"/>
<stop offset="1" stop-color="#264AFB"/>
</linearGradient>
<linearGradient id="paint3_linear_14_545" x1="42.2094" y1="42.1513" x2="16.9243" y2="19.7786" gradientUnits="userSpaceOnUse">
<stop stop-color="#3477FD"/>
<stop offset="0.07" stop-color="#3B8BFE"/>
<stop offset="0.14" stop-color="#419DFF"/>
<stop offset="0.37" stop-color="#43A4FF"/>
<stop offset="0.73" stop-color="#44A8FF"/>
<stop offset="1" stop-color="#264AFB"/>
</linearGradient>
<clipPath id="clip0_14_545">
<rect width="126" height="38.5" fill="white" transform="translate(5 5)"/>
</clipPath>
</defs>
</svg>
